<?xml version="1.0" encoding="utf-8"?>
<!-- Generator: Adobe Illustrator 23.0.0, SVG Export Plug-In . SVG Version: 6.00 Build 0)  -->
<svg version="1.1" id="Capa_1" xmlns="http://www.w3.org/2000/svg" xmlns:xlink="http://www.w3.org/1999/xlink" x="0px" y="0px"
	 viewBox="0 0 960 560" style="enable-background:new 0 0 960 560;" xml:space="preserve">
<style type="text/css">
	.st0{fill:#FFBC1E;}
	.st1{fill:#37A082;}
	.st2{fill:none;stroke:#EF1300;stroke-width:3;stroke-miterlimit:10;}
</style>
<g>
	<g>
		<g>
			<path class="st0" d="M353.75,211.52l-10.82,64.78H324.7l5.79-34.5c0.6-3.54,1.38-7.24,2.33-11.11c0.76-3.13,1.28-5.52,1.57-7.17
				c-0.38,0.98-0.93,2.47-1.66,4.46c-1.55,4.15-2.98,7.69-4.28,10.63l-16.77,37.68H300l-4.45-37.68c-0.41-3.32-0.69-6.87-0.85-10.63
				c-0.13-2.25-0.25-3.99-0.38-5.22c-0.89,8.95-1.87,16.67-2.94,23.16l-5.07,30.37h-14.67l10.8-64.78h26.06l3.48,28.66
				c0.29,2.34,0.54,4,0.76,4.98c0.44-1.45,1.09-3.12,1.95-4.98l12.84-28.66H353.75z"/>
			<path class="st0" d="M404.43,261.4l-2.51,14.9h-47.74l10.82-64.78h46.56l-2.37,14.19h-27.79l-1.68,10.16h23.35l-2.37,14.05h-23.3
				l-1.9,11.48H404.43z"/>
			<path class="st0" d="M491.95,211.52l-10.82,64.78h-18.24l5.79-34.5c0.6-3.54,1.38-7.24,2.33-11.11c0.76-3.13,1.28-5.52,1.57-7.17
				c-0.38,0.98-0.93,2.47-1.66,4.46c-1.55,4.15-2.98,7.69-4.28,10.63l-16.77,37.68H438.2l-4.45-37.68
				c-0.41-3.32-0.69-6.87-0.85-10.63c-0.13-2.25-0.25-3.99-0.38-5.22c-0.89,8.95-1.87,16.67-2.94,23.16l-5.07,30.37h-14.67
				l10.8-64.78h26.06l3.48,28.66c0.29,2.34,0.54,4,0.76,4.98c0.44-1.45,1.09-3.12,1.95-4.98l12.84-28.66H491.95z"/>
			<path class="st0" d="M522.98,277.96c-7.66,0-14.3-2.51-19.93-7.52c-5.63-5.01-8.45-12.2-8.45-21.57
				c0-10.85,3.15-20.07,9.44-27.64c6.3-7.58,14.52-11.37,24.68-11.37c8.13,0,14.81,2.65,20.03,7.95c5.22,5.3,7.83,12.24,7.83,20.81
				c0,10.95-3.1,20.24-9.3,27.88C541.07,274.14,532.97,277.96,522.98,277.96z M523.12,262.87c3.35,0,5.9-1.42,7.64-4.25
				c1.74-2.83,3.12-6.98,4.13-12.46c1.01-5.47,1.52-9.18,1.52-11.11c0-3.32-0.77-5.84-2.3-7.55c-1.54-1.71-3.57-2.56-6.1-2.56
				c-4.84,0-8.24,3.37-10.2,10.11c-1.96,6.74-2.94,12.7-2.94,17.89C514.86,259.56,517.61,262.87,523.12,262.87z"/>
			<path class="st0" d="M607.27,249.15l7.01,27.15h-19.17l-5.7-24.63h-7.67l-4.14,24.63h-18.48l10.82-64.78h28.28
				c7.69,0,13.38,1.68,17.09,5.05c3.7,3.37,5.55,7.95,5.55,13.74C620.88,239.58,616.35,245.86,607.27,249.15z M584.02,238.19h7.29
				c7,0,10.5-2.37,10.5-7.12c0-3.99-2.94-5.98-8.81-5.98h-6.78L584.02,238.19z"/>
			<path class="st0" d="M684.19,211.52l-26.75,36.71l-4.73,28.07h-19.29l4.84-29l-15.23-35.78h20.48l6.78,18.01
				c0.51,1.2,1,2.63,1.47,4.28l3.23-5.04l11.54-17.25H684.19z"/>
		</g>
	</g>
	<g>
		<g>
			<path d="M356.81,208.46l-10.82,64.78h-18.24l5.79-34.5c0.6-3.54,1.38-7.24,2.33-11.11c0.76-3.13,1.28-5.52,1.57-7.17
				c-0.38,0.98-0.93,2.47-1.66,4.46c-1.55,4.15-2.98,7.69-4.28,10.63l-16.77,37.68h-11.67l-4.45-37.68
				c-0.41-3.32-0.69-6.87-0.85-10.63c-0.13-2.25-0.25-3.99-0.38-5.22c-0.89,8.95-1.87,16.67-2.94,23.16l-5.07,30.37h-14.68
				l10.8-64.78h26.06l3.48,28.66c0.29,2.34,0.54,4,0.76,4.98c0.44-1.45,1.09-3.12,1.95-4.98l12.84-28.66H356.81z"/>
			<path d="M407.48,258.34l-2.51,14.9h-47.74l10.82-64.78h46.56l-2.37,14.19h-27.79l-1.68,10.16h23.35l-2.37,14.05h-23.3l-1.9,11.48
				H407.48z"/>
			<path d="M495.01,208.46l-10.82,64.78h-18.24l5.79-34.5c0.6-3.54,1.38-7.24,2.33-11.11c0.76-3.13,1.28-5.52,1.57-7.17
				c-0.38,0.98-0.93,2.47-1.66,4.46c-1.55,4.15-2.98,7.69-4.28,10.63l-16.77,37.68h-11.67l-4.45-37.68
				c-0.41-3.32-0.69-6.87-0.85-10.63c-0.13-2.25-0.25-3.99-0.38-5.22c-0.89,8.95-1.87,16.67-2.94,23.16l-5.07,30.37h-14.67
				l10.8-64.78h26.06l3.48,28.66c0.29,2.34,0.54,4,0.76,4.98c0.44-1.45,1.09-3.12,1.95-4.98l12.84-28.66H495.01z"/>
			<path d="M526.03,274.9c-7.66,0-14.3-2.51-19.93-7.52c-5.63-5.01-8.45-12.2-8.45-21.57c0-10.85,3.15-20.07,9.44-27.64
				c6.3-7.58,14.52-11.37,24.68-11.37c8.13,0,14.81,2.65,20.03,7.95c5.22,5.3,7.83,12.24,7.83,20.81c0,10.95-3.1,20.24-9.3,27.88
				C544.13,271.08,536.03,274.9,526.03,274.9z M526.18,259.81c3.35,0,5.9-1.42,7.64-4.25c1.74-2.83,3.12-6.98,4.13-12.46
				c1.01-5.47,1.52-9.18,1.52-11.11c0-3.32-0.77-5.84-2.3-7.55c-1.54-1.71-3.57-2.56-6.1-2.56c-4.84,0-8.24,3.37-10.2,10.11
				c-1.96,6.74-2.94,12.7-2.94,17.89C517.92,256.5,520.67,259.81,526.18,259.81z"/>
			<path d="M610.33,246.09l7.01,27.15h-19.17l-5.7-24.63h-7.67l-4.14,24.63H562.2l10.82-64.78h28.28c7.69,0,13.38,1.68,17.09,5.05
				c3.7,3.37,5.55,7.95,5.55,13.74C623.94,236.52,619.4,242.8,610.33,246.09z M587.07,235.13h7.29c7,0,10.5-2.37,10.5-7.12
				c0-3.99-2.94-5.98-8.81-5.98h-6.78L587.07,235.13z"/>
			<path d="M687.25,208.46l-26.75,36.71l-4.73,28.07h-19.29l4.84-29l-15.23-35.78h20.48l6.78,18.01c0.51,1.2,1,2.63,1.47,4.28
				l3.23-5.04l11.54-17.25H687.25z"/>
		</g>
	</g>
	<g>
		<g>
			<path class="st1" d="M329.16,322.74l-3.39,23.82c-7.18,3.86-14.32,5.8-21.41,5.8c-8.51,0-15.29-2.79-20.32-8.38
				c-5.03-5.58-7.55-12.51-7.55-20.76c0-10.5,3.95-19.61,11.84-27.31c7.89-7.7,19.1-11.56,33.62-11.56c2.85,0,6.68,0.28,11.48,0.85
				l-1.09,7.97c-5.22-0.57-9.14-0.85-11.77-0.85c-10.85,0-19.35,3.06-25.49,9.18c-6.14,6.12-9.21,13.26-9.21,21.43
				c0,6.33,1.79,11.49,5.36,15.47c3.58,3.99,8.18,5.98,13.81,5.98c4.21,0,8.45-1.06,12.72-3.18l1.57-11.48h-9.44l1-6.98H329.16z"/>
			<path class="st1" d="M366.06,284.82l12.85,66.68h-8.17l-3.92-20.79h-20.85l-8.75,20.79h-8.86l29.35-66.68H366.06z M348.94,323.69
				h16.57l-5.12-27.19L348.94,323.69z"/>
			<path class="st1" d="M454.66,285.2v66.3h-8.78l-0.05-50.5l-26.74,50.5l-11.7-50.73l-16.31,50.73h-8.75l21.86-66.3h7.59
				l10.35,44.91l23.79-44.91H454.66z"/>
			<path class="st1" d="M509.85,285.2l-1.09,7.88h-26.54l-2.88,20.79h23.4l-1.05,7.88h-23.58l-3.14,21.88h34.88l-1.19,7.88h-43.52
				l9.63-66.3H509.85z"/>
		</g>
	</g>
	<line class="st2" x1="522.01" y1="289.88" x2="658.96" y2="289.88"/>
	<line class="st2" x1="522.01" y1="318.61" x2="624.11" y2="318.61"/>
	<line class="st2" x1="522.01" y1="348.57" x2="588.65" y2="348.57"/>
</g>
<g>
</g>
<g>
</g>
<g>
</g>
<g>
</g>
<g>
</g>
<g>
</g>
<g>
</g>
<g>
</g>
<g>
</g>
<g>
</g>
<g>
</g>
<g>
</g>
<g>
</g>
<g>
</g>
<g>
</g>
</svg>
