<?xml version="1.0" encoding="UTF-8" standalone="no"?>
<!-- Generator: Adobe Illustrator 23.0.0, SVG Export Plug-In . SVG Version: 6.00 Build 0)  -->

<svg
   version="1.1"
   id="Capa_1"
   x="0px"
   y="0px"
   viewBox="0 0 415.60999 145.56"
   xml:space="preserve"
   sodipodi:docname="logo_tr.svg"
   width="415.60999"
   height="145.56"
   inkscape:version="1.1 (c68e22c387, 2021-05-23)"
   xmlns:inkscape="http://www.inkscape.org/namespaces/inkscape"
   xmlns:sodipodi="http://sodipodi.sourceforge.net/DTD/sodipodi-0.dtd"
   xmlns="http://www.w3.org/2000/svg"
   xmlns:svg="http://www.w3.org/2000/svg"><defs
   id="defs2743"><clipPath
     clipPathUnits="userSpaceOnUse"
     id="clipPath2873"><rect
       style="opacity:0.2;fill:#0000ff;fill-rule:evenodd;stroke-width:0.810892"
       id="rect2875"
       width="450.69052"
       height="192.04202"
       x="257.54904"
       y="183.42078" /></clipPath></defs><sodipodi:namedview
   id="namedview2741"
   pagecolor="#ffffff"
   bordercolor="#999999"
   borderopacity="1"
   inkscape:pageshadow="0"
   inkscape:pageopacity="0"
   inkscape:pagecheckerboard="0"
   showgrid="false"
   fit-margin-top="0"
   fit-margin-left="0"
   fit-margin-right="0"
   fit-margin-bottom="0"
   inkscape:zoom="1.1479167"
   inkscape:cx="108.89292"
   inkscape:cy="73.176044"
   inkscape:window-width="979"
   inkscape:window-height="922"
   inkscape:window-x="-5"
   inkscape:window-y="0"
   inkscape:window-maximized="1"
   inkscape:current-layer="Capa_1" />
<style
   type="text/css"
   id="style2656">
	.st0{fill:#FFBC1E;}
	.st1{fill:#37A082;}
	.st2{fill:none;stroke:#EF1300;stroke-width:3;stroke-miterlimit:10;}
</style>
<g
   id="g2708"
   clip-path="url(#clipPath2873)"
   transform="translate(-271.64,-206.8)"
   inkscape:export-filename="D:\dev\assembler\03-04-mar-apr\day16-20220422-play-with-assembler\memory-game\src\assets\img\g2708.png"
   inkscape:export-xdpi="96"
   inkscape:export-ydpi="96">
	<g
   id="g2672">
		<g
   id="g2670">
			<path
   class="st0"
   d="M 353.75,211.52 342.93,276.3 H 324.7 l 5.79,-34.5 c 0.6,-3.54 1.38,-7.24 2.33,-11.11 0.76,-3.13 1.28,-5.52 1.57,-7.17 -0.38,0.98 -0.93,2.47 -1.66,4.46 -1.55,4.15 -2.98,7.69 -4.28,10.63 l -16.77,37.68 H 300 l -4.45,-37.68 c -0.41,-3.32 -0.69,-6.87 -0.85,-10.63 -0.13,-2.25 -0.25,-3.99 -0.38,-5.22 -0.89,8.95 -1.87,16.67 -2.94,23.16 l -5.07,30.37 h -14.67 l 10.8,-64.78 h 26.06 l 3.48,28.66 c 0.29,2.34 0.54,4 0.76,4.98 0.44,-1.45 1.09,-3.12 1.95,-4.98 l 12.84,-28.66 h 26.22 z"
   id="path2658" />
			<path
   class="st0"
   d="m 404.43,261.4 -2.51,14.9 H 354.18 L 365,211.52 h 46.56 l -2.37,14.19 H 381.4 l -1.68,10.16 h 23.35 l -2.37,14.05 h -23.3 l -1.9,11.48 z"
   id="path2660" />
			<path
   class="st0"
   d="m 491.95,211.52 -10.82,64.78 h -18.24 l 5.79,-34.5 c 0.6,-3.54 1.38,-7.24 2.33,-11.11 0.76,-3.13 1.28,-5.52 1.57,-7.17 -0.38,0.98 -0.93,2.47 -1.66,4.46 -1.55,4.15 -2.98,7.69 -4.28,10.63 l -16.77,37.68 H 438.2 l -4.45,-37.68 c -0.41,-3.32 -0.69,-6.87 -0.85,-10.63 -0.13,-2.25 -0.25,-3.99 -0.38,-5.22 -0.89,8.95 -1.87,16.67 -2.94,23.16 l -5.07,30.37 h -14.67 l 10.8,-64.78 h 26.06 l 3.48,28.66 c 0.29,2.34 0.54,4 0.76,4.98 0.44,-1.45 1.09,-3.12 1.95,-4.98 l 12.84,-28.66 h 26.22 z"
   id="path2662" />
			<path
   class="st0"
   d="m 522.98,277.96 c -7.66,0 -14.3,-2.51 -19.93,-7.52 -5.63,-5.01 -8.45,-12.2 -8.45,-21.57 0,-10.85 3.15,-20.07 9.44,-27.64 6.3,-7.58 14.52,-11.37 24.68,-11.37 8.13,0 14.81,2.65 20.03,7.95 5.22,5.3 7.83,12.24 7.83,20.81 0,10.95 -3.1,20.24 -9.3,27.88 -6.21,7.64 -14.31,11.46 -24.3,11.46 z m 0.14,-15.09 c 3.35,0 5.9,-1.42 7.64,-4.25 1.74,-2.83 3.12,-6.98 4.13,-12.46 1.01,-5.47 1.52,-9.18 1.52,-11.11 0,-3.32 -0.77,-5.84 -2.3,-7.55 -1.54,-1.71 -3.57,-2.56 -6.1,-2.56 -4.84,0 -8.24,3.37 -10.2,10.11 -1.96,6.74 -2.94,12.7 -2.94,17.89 -0.01,6.62 2.74,9.93 8.25,9.93 z"
   id="path2664" />
			<path
   class="st0"
   d="m 607.27,249.15 7.01,27.15 h -19.17 l -5.7,-24.63 h -7.67 l -4.14,24.63 h -18.48 l 10.82,-64.78 h 28.28 c 7.69,0 13.38,1.68 17.09,5.05 3.7,3.37 5.55,7.95 5.55,13.74 0.02,9.27 -4.51,15.55 -13.59,18.84 z m -23.25,-10.96 h 7.29 c 7,0 10.5,-2.37 10.5,-7.12 0,-3.99 -2.94,-5.98 -8.81,-5.98 h -6.78 z"
   id="path2666" />
			<path
   class="st0"
   d="m 684.19,211.52 -26.75,36.71 -4.73,28.07 h -19.29 l 4.84,-29 -15.23,-35.78 h 20.48 l 6.78,18.01 c 0.51,1.2 1,2.63 1.47,4.28 l 3.23,-5.04 11.54,-17.25 z"
   id="path2668" />
		</g>
	</g>
	<g
   id="g2688">
		<g
   id="g2686">
			<path
   d="m 356.81,208.46 -10.82,64.78 h -18.24 l 5.79,-34.5 c 0.6,-3.54 1.38,-7.24 2.33,-11.11 0.76,-3.13 1.28,-5.52 1.57,-7.17 -0.38,0.98 -0.93,2.47 -1.66,4.46 -1.55,4.15 -2.98,7.69 -4.28,10.63 l -16.77,37.68 h -11.67 l -4.45,-37.68 c -0.41,-3.32 -0.69,-6.87 -0.85,-10.63 -0.13,-2.25 -0.25,-3.99 -0.38,-5.22 -0.89,8.95 -1.87,16.67 -2.94,23.16 l -5.07,30.37 h -14.68 l 10.8,-64.78 h 26.06 l 3.48,28.66 c 0.29,2.34 0.54,4 0.76,4.98 0.44,-1.45 1.09,-3.12 1.95,-4.98 l 12.84,-28.66 h 26.23 z"
   id="path2674" />
			<path
   d="m 407.48,258.34 -2.51,14.9 h -47.74 l 10.82,-64.78 h 46.56 l -2.37,14.19 h -27.79 l -1.68,10.16 h 23.35 l -2.37,14.05 h -23.3 l -1.9,11.48 z"
   id="path2676" />
			<path
   d="m 495.01,208.46 -10.82,64.78 h -18.24 l 5.79,-34.5 c 0.6,-3.54 1.38,-7.24 2.33,-11.11 0.76,-3.13 1.28,-5.52 1.57,-7.17 -0.38,0.98 -0.93,2.47 -1.66,4.46 -1.55,4.15 -2.98,7.69 -4.28,10.63 l -16.77,37.68 h -11.67 l -4.45,-37.68 c -0.41,-3.32 -0.69,-6.87 -0.85,-10.63 -0.13,-2.25 -0.25,-3.99 -0.38,-5.22 -0.89,8.95 -1.87,16.67 -2.94,23.16 l -5.07,30.37 H 412.9 l 10.8,-64.78 h 26.06 l 3.48,28.66 c 0.29,2.34 0.54,4 0.76,4.98 0.44,-1.45 1.09,-3.12 1.95,-4.98 l 12.84,-28.66 h 26.22 z"
   id="path2678" />
			<path
   d="m 526.03,274.9 c -7.66,0 -14.3,-2.51 -19.93,-7.52 -5.63,-5.01 -8.45,-12.2 -8.45,-21.57 0,-10.85 3.15,-20.07 9.44,-27.64 6.3,-7.58 14.52,-11.37 24.68,-11.37 8.13,0 14.81,2.65 20.03,7.95 5.22,5.3 7.83,12.24 7.83,20.81 0,10.95 -3.1,20.24 -9.3,27.88 -6.2,7.64 -14.3,11.46 -24.3,11.46 z m 0.15,-15.09 c 3.35,0 5.9,-1.42 7.64,-4.25 1.74,-2.83 3.12,-6.98 4.13,-12.46 1.01,-5.47 1.52,-9.18 1.52,-11.11 0,-3.32 -0.77,-5.84 -2.3,-7.55 -1.54,-1.71 -3.57,-2.56 -6.1,-2.56 -4.84,0 -8.24,3.37 -10.2,10.11 -1.96,6.74 -2.94,12.7 -2.94,17.89 -0.01,6.62 2.74,9.93 8.25,9.93 z"
   id="path2680" />
			<path
   d="m 610.33,246.09 7.01,27.15 h -19.17 l -5.7,-24.63 h -7.67 l -4.14,24.63 H 562.2 l 10.82,-64.78 h 28.28 c 7.69,0 13.38,1.68 17.09,5.05 3.7,3.37 5.55,7.95 5.55,13.74 0,9.27 -4.54,15.55 -13.61,18.84 z m -23.26,-10.96 h 7.29 c 7,0 10.5,-2.37 10.5,-7.12 0,-3.99 -2.94,-5.98 -8.81,-5.98 h -6.78 z"
   id="path2682" />
			<path
   d="m 687.25,208.46 -26.75,36.71 -4.73,28.07 h -19.29 l 4.84,-29 -15.23,-35.78 h 20.48 l 6.78,18.01 c 0.51,1.2 1,2.63 1.47,4.28 l 3.23,-5.04 11.54,-17.25 z"
   id="path2684" />
		</g>
	</g>
	<g
   id="g2700">
		<g
   id="g2698">
			<path
   class="st1"
   d="m 329.16,322.74 -3.39,23.82 c -7.18,3.86 -14.32,5.8 -21.41,5.8 -8.51,0 -15.29,-2.79 -20.32,-8.38 -5.03,-5.58 -7.55,-12.51 -7.55,-20.76 0,-10.5 3.95,-19.61 11.84,-27.31 7.89,-7.7 19.1,-11.56 33.62,-11.56 2.85,0 6.68,0.28 11.48,0.85 l -1.09,7.97 c -5.22,-0.57 -9.14,-0.85 -11.77,-0.85 -10.85,0 -19.35,3.06 -25.49,9.18 -6.14,6.12 -9.21,13.26 -9.21,21.43 0,6.33 1.79,11.49 5.36,15.47 3.58,3.99 8.18,5.98 13.81,5.98 4.21,0 8.45,-1.06 12.72,-3.18 l 1.57,-11.48 h -9.44 l 1,-6.98 z"
   id="path2690" />
			<path
   class="st1"
   d="m 366.06,284.82 12.85,66.68 h -8.17 l -3.92,-20.79 h -20.85 l -8.75,20.79 h -8.86 l 29.35,-66.68 z m -17.12,38.87 h 16.57 l -5.12,-27.19 z"
   id="path2692" />
			<path
   class="st1"
   d="m 454.66,285.2 v 66.3 h -8.78 l -0.05,-50.5 -26.74,50.5 -11.7,-50.73 -16.31,50.73 h -8.75 l 21.86,-66.3 h 7.59 l 10.35,44.91 23.79,-44.91 z"
   id="path2694" />
			<path
   class="st1"
   d="m 509.85,285.2 -1.09,7.88 h -26.54 l -2.88,20.79 h 23.4 l -1.05,7.88 h -23.58 l -3.14,21.88 h 34.88 l -1.19,7.88 h -43.52 l 9.63,-66.3 h 35.08 z"
   id="path2696" />
		</g>
	</g>
	<line
   class="st2"
   x1="522.01001"
   y1="289.88"
   x2="658.96002"
   y2="289.88"
   id="line2702" />
	<line
   class="st2"
   x1="522.01001"
   y1="318.60999"
   x2="624.10999"
   y2="318.60999"
   id="line2704" />
	<line
   class="st2"
   x1="522.01001"
   y1="348.57001"
   x2="588.65002"
   y2="348.57001"
   id="line2706" />
</g>
<g
   id="g2710"
   transform="translate(-271.64,-206.8)">
</g>
<g
   id="g2712"
   transform="translate(-271.64,-206.8)">
</g>
<g
   id="g2714"
   transform="translate(-271.64,-206.8)">
</g>
<g
   id="g2716"
   transform="translate(-271.64,-206.8)">
</g>
<g
   id="g2718"
   transform="translate(-271.64,-206.8)">
</g>
<g
   id="g2720"
   transform="translate(-271.64,-206.8)">
</g>
<g
   id="g2722"
   transform="translate(-271.64,-206.8)">
</g>
<g
   id="g2724"
   transform="translate(-271.64,-206.8)">
</g>
<g
   id="g2726"
   transform="translate(-271.64,-206.8)">
</g>
<g
   id="g2728"
   transform="translate(-271.64,-206.8)">
</g>
<g
   id="g2730"
   transform="translate(-271.64,-206.8)">
</g>
<g
   id="g2732"
   transform="translate(-271.64,-206.8)">
</g>
<g
   id="g2734"
   transform="translate(-271.64,-206.8)">
</g>
<g
   id="g2736"
   transform="translate(-271.64,-206.8)">
</g>
<g
   id="g2738"
   transform="translate(-271.64,-206.8)">
</g>
</svg>
